<?xml version="1.0" standalone="no"?>
<!DOCTYPE svg PUBLIC "-//W3C//DTD SVG 20010904//EN"
 "http://www.w3.org/TR/2001/REC-SVG-20010904/DTD/svg10.dtd">
<svg version="1.0" xmlns="http://www.w3.org/2000/svg"
 width="150.000000pt" height="150.000000pt" viewBox="0 0 150.000000 150.000000"
 preserveAspectRatio="xMidYMid meet">
<metadata>
Created by potrace 1.14, written by Peter Selinger 2001-2017
</metadata>
<g transform="translate(0.000000,150.000000) scale(0.100000,-0.100000)"
fill="#000000" stroke="none">
<path d="M561 1471 c-17 -13 -25 -31 -28 -65 -3 -26 -1 -46 5 -46 5 0 12 -8
16 -17 45 -133 46 -169 6 -326 -16 -65 -30 -120 -30 -124 0 -3 -13 -3 -29 0
-23 5 -42 -2 -90 -33 -34 -22 -61 -36 -61 -32 0 4 -4 2 -8 -5 -9 -14 -183
-133 -194 -133 -5 0 -18 -8 -29 -18 -10 -11 -32 -25 -47 -33 -14 -8 -37 -23
-49 -33 -23 -20 -23 -21 -23 -313 l0 -293 190 0 190 0 217 141 c120 78 229
152 243 165 18 18 24 33 22 59 -2 30 1 37 25 46 15 6 53 12 85 13 63 3 83 14
318 178 69 49 130 88 137 88 6 0 21 12 32 26 37 47 24 144 -23 165 -20 10 -24
18 -23 55 1 49 -24 92 -61 109 -14 6 -20 15 -16 25 11 28 11 45 0 70 -10 23
-54 70 -66 70 -3 0 -5 23 -5 50 0 43 -4 54 -29 75 -35 30 -66 40 -102 31 -23
-6 -80 -41 -94 -57 -16 -19 -159 -104 -165 -97 -9 11 -59 114 -57 120 1 4 -31
42 -71 83 -69 72 -74 75 -117 75 -28 0 -54 -7 -69 -19z"/>
</g>
</svg>
