<?xml version="1.0" standalone="no"?>
<!DOCTYPE svg PUBLIC "-//W3C//DTD SVG 20010904//EN"
 "http://www.w3.org/TR/2001/REC-SVG-20010904/DTD/svg10.dtd">
<svg version="1.0" xmlns="http://www.w3.org/2000/svg"
 width="150.000000pt" height="150.000000pt" viewBox="0 0 150.000000 150.000000"
 preserveAspectRatio="xMidYMid meet">
<metadata>
Created by potrace 1.14, written by Peter Selinger 2001-2017
</metadata>
<g transform="translate(0.000000,150.000000) scale(0.100000,-0.100000)"
fill="#000000" stroke="none">
<path d="M599 1435 c-40 -22 -52 -59 -35 -113 6 -16 1 -21 -28 -26 -50 -10
-183 -79 -236 -123 -282 -232 -308 -663 -56 -920 39 -39 97 -88 130 -107 61
-37 161 -74 209 -78 15 -1 27 -6 27 -10 0 -10 203 -6 210 3 3 4 17 10 30 13
40 7 108 34 163 63 71 37 204 174 245 251 18 34 30 62 26 62 -3 0 -1 7 6 15 7
8 9 15 5 15 -4 0 -2 6 4 14 10 12 17 45 20 99 1 5 4 6 9 3 4 -2 6 13 4 34 -4
35 -1 40 42 69 52 36 66 57 66 100 0 32 -42 91 -66 91 -10 0 -11 6 -5 23 5 12
9 25 10 30 3 16 -31 68 -55 83 -20 14 -24 22 -19 45 7 33 -7 66 -42 95 -19 17
-26 32 -27 67 -1 35 -8 51 -26 67 -49 43 -93 39 -173 -16 -31 -22 -56 -32 -66
-28 -9 4 -46 16 -82 28 -56 18 -76 32 -137 94 -76 77 -100 86 -153 57z m300
-196 c36 -13 36 -28 1 -46 -22 -11 -25 -9 -37 19 -19 45 -18 46 36 27z"/>
</g>
</svg>
